# xmcd
#
# Track frame offsets:
#	150
#	11242
#	22900
#	37247
#	49397
#	59980
#	72622
#	84210
#	97772
#	107840
#	118542
#	129332
#	140585
#	153017
#	162817
#	175962
#	185662
#
# Disc length: 2606 seconds
#
# Revision: 0
# Processed by: cddbd v1.5.1PL0 Copyright (c) Steve Scherf et al.
# Submitted via: dBpowerAMP V4.0
#
DISCID=eb0a2c11
DTITLE=Hank Locklin - The Very Best Of Hank Locklin
DYEAR=1996
DGENRE=Country
TTITLE0=Please Help Me I'm Falling
TTITLE1=Send Me The Pillow You Dream On
TTITLE2=Baby I Need You
TTITLE3=There Never Was A Time
TTITLE4=Let Me Be The One
TTITLE5=From Here To There To You
TTITLE6=Down On My Knees Again
TTITLE7=Happy Birthday To Me
TTITLE8=Happy Journey
TTITLE9=These Arms You Push Away
TTITLE10=Night Life Queen
TTITLE11=I Was Coming Home To You
TTITLE12=It's A Little More Like Heaven
TTITLE13=Geisha Girl
TTITLE14=Daytime Love Affair
TTITLE15=Flyin' South
TTITLE16=We're Gonna Go Fishin'
EXTD=
EXTT0=
EXTT1=
EXTT2=
EXTT3=
EXTT4=
EXTT5=
EXTT6=
EXTT7=
EXTT8=
EXTT9=
EXTT10=
EXTT11=
EXTT12=
EXTT13=
EXTT14=
EXTT15=
EXTT16=
PLAYORDER=
